<?xml version="1.0" encoding="UTF-8"?>
<svg version="1.1" xmlns="http://www.w3.org/2000/svg" width="1254" height="1254" fill="none" stroke="#FB934C" stroke-width="5" stroke-linecap="round" stroke-linejoin="round">
<path id="p1" d="M0 0 C9.01157824 5.91342727 16.44602767 13.39827785 21.1875 23.125 C21.69667969 24.15882813 22.20585938 25.19265625 22.73046875 26.2578125 C24.30965138 29.66884698 25.12615789 32.35683565 25.19287109 36.08154297 C25.20893402 36.90024872 25.22499695 37.71895447 25.24154663 38.56246948 C25.28645753 42.33623157 25.32713863 46.10982085 25.35009766 49.88378906 C25.36655117 51.86014671 25.39369836 53.83644753 25.43212891 55.8125 C25.78241775 73.94223216 23.05025626 87.66709861 10.125 101.25 C6.37636858 104.82147493 2.61047365 107.6444671 -2 110 C-2.72960937 110.39316406 -3.45921875 110.78632813 -4.2109375 111.19140625 C-14.22487135 115.72452773 -27.12801511 115.6365317 -37.70703125 113.1171875 C-44.30525605 110.55921075 -49.73527954 106.67409418 -55 102 C-55.92232422 101.25169922 -55.92232422 101.25169922 -56.86328125 100.48828125 C-65.38520522 92.98672068 -70.17549122 80.97802637 -71.20045471 69.81726074 C-71.29309341 67.61954383 -71.32938473 65.43010948 -71.3359375 63.23046875 C-71.3459227 62.02708611 -71.3459227 62.02708611 -71.35610962 60.7993927 C-71.36615845 59.11457585 -71.37092907 57.42971983 -71.37060547 55.74487305 C-71.37497237 53.20357894 -71.41135595 50.66403432 -71.44921875 48.12304688 C-71.56417945 31.68989698 -67.61244986 20.05215463 -56.3125 7.8125 C-41.44523778 -6.4473449 -18.18231051 -10.2323581 0 0 Z" transform="translate(530,262)"/>
<path id="p2" d="M0 0 C1.21913086 -0.0309375 1.21913086 -0.0309375 2.46289062 -0.0625 C14.99894093 -0.14228393 25.43521294 5.32100664 34.41796875 13.765625 C46.53222324 26.33441106 48.44738893 38.78598698 48.22412109 55.5847168 C48.1874473 58.44160517 48.18310389 61.29719664 48.18359375 64.15429688 C48.17376556 65.99219858 48.16210986 67.83009162 48.1484375 69.66796875 C48.14621185 70.5108696 48.14398621 71.35377045 48.14169312 72.22221375 C47.92588806 85.83317634 42.36007888 97.57617214 32.8125 107.25 C20.06252448 117.60825597 7.81304881 119.70584393 -8.1875 118.25 C-21.18449779 115.98496304 -31.52526853 108.92121936 -39.1875 98.25 C-41.42503875 94.34673795 -43.38107732 90.36910394 -45.1875 86.25 C-45.53659424 85.55438965 -45.88568848 84.8587793 -46.24536133 84.14208984 C-47.55331671 80.12704982 -47.49285471 76.37731107 -47.48828125 72.1796875 C-47.49256638 71.30281281 -47.4968515 70.42593811 -47.50126648 69.52249146 C-47.50699894 67.66832337 -47.50751804 65.8141328 -47.50317383 63.95996094 C-47.50003381 61.15519626 -47.52341669 58.35150789 -47.54882812 55.546875 C-47.60585957 39.85456844 -45.57146819 26.95830162 -34.78515625 14.75 C-24.507306 5.10038021 -13.92945442 0.0863173 0 0 Z" transform="translate(797.1875,819.75)"/>
</svg>
